<?xml version="1.0" encoding="UTF-8" standalone="no"?><!DOCTYPE svg PUBLIC "-//W3C//DTD SVG 1.1//EN" "http://www.w3.org/Graphics/SVG/1.1/DTD/svg11.dtd"><svg width="100%" height="100%" viewBox="0 0 2826 896" version="1.1" xmlns="http://www.w3.org/2000/svg" xmlns:xlink="http://www.w3.org/1999/xlink" xml:space="preserve" xmlns:serif="http://www.serif.com/" style="fill-rule:evenodd;clip-rule:evenodd;stroke-linejoin:round;stroke-miterlimit:1.41421;"><rect id="ArtBoard1" x="0" y="0" width="2825.59" height="895.738" style="fill:none;"/><clipPath id="_clip1"><rect id="ArtBoard11" serif:id="ArtBoard1" x="0" y="0" width="2825.59" height="895.738"/></clipPath><g clip-path="url(#_clip1)"><g id="Layer-1" serif:id="Layer 1"><circle cx="390.425" cy="876.784" r="18.954" style="fill:#be00ff;"/><path d="M9.48,249.83c9.067,5.234 20.658,2.13 25.888,-6.933c5.233,-9.071 2.125,-20.658 -6.938,-25.892c-9.062,-5.237 -20.654,-2.129 -25.887,6.938c-5.234,9.062 -2.13,20.654 6.937,25.887" style="fill:#be00ff;fill-rule:nonzero;"/><path d="M9.48,645.94c-9.067,5.234 -12.171,16.821 -6.937,25.888c5.233,9.067 16.825,12.171 25.887,6.942c9.063,-5.238 12.171,-16.83 6.938,-25.888c-5.23,-9.075 -16.821,-12.175 -25.888,-6.942" style="fill:#be00ff;fill-rule:nonzero;"/><path d="M771.37,249.83c9.07,-5.233 12.175,-16.825 6.937,-25.887c-5.229,-9.067 -16.821,-12.175 -25.892,-6.938c-9.062,5.234 -12.17,16.821 -6.937,25.892c5.242,9.063 16.829,12.167 25.892,6.933" style="fill:#be00ff;fill-rule:nonzero;"/><path d="M390.425,37.904c10.466,0 18.954,-8.483 18.954,-18.954c0,-10.467 -8.488,-18.95 -18.954,-18.95c-10.471,0 -18.955,8.483 -18.955,18.95c0,10.471 8.484,18.954 18.955,18.954" style="fill:#be00ff;fill-rule:nonzero;"/><path d="M463.7,588.535c34.7,-20.033 59,-51.146 71.033,-86.296c18.462,-53.921 101.354,-23.825 70.383,46.263c-0.271,0.629 -0.554,1.262 -0.841,1.879l101.987,58.887c8.654,4.992 11.646,16.159 6.65,24.804c-4.996,8.646 -16.158,11.642 -24.812,6.642l-101.23,-58.437c-20.12,31.037 -46.77,57.92 -81.008,77.691c-30.567,17.646 -62.117,27.859 -95.45,31.205l0,110.887c0,9.996 -8.762,18.158 -18.75,18.158c-9.987,0 -18.75,-8.162 -18.75,-18.158l0,-109.967c-70.833,-3.646 -143.904,-40.575 -187.771,-104.533l-92.233,53.154c-8.65,4.996 -19.896,2.004 -24.883,-6.642c-4.996,-8.645 -2.046,-19.812 6.604,-24.804l91.941,-53.1c-6.104,-12.558 -11.041,-25.437 -14.816,-38.487l-8.817,-48.8c-3.342,-44.338 5.688,-88.729 25.696,-128.084l-94.046,-54.291c-8.65,-4.996 -11.637,-16.154 -6.642,-24.804c4.992,-8.655 16.155,-11.638 24.805,-6.65l94.737,54.695c19.446,-27.175 45.188,-50.733 76.008,-68.529c34.496,-19.921 71.917,-30.371 109.417,-32.15l0,-115.396c0,-9.983 8.763,-18.154 18.75,-18.154c9.988,0 18.75,8.171 18.75,18.154l0,116.396c66.667,7.113 133.467,43.879 174.738,104.95l103.408,-59.966c8.65,-4.988 19.587,-2.005 24.583,6.65c4.992,8.65 1.888,19.808 -6.762,24.804l-140.821,81.266c-0.596,0.35 -1.233,0.65 -1.854,0.921l-33.225,19.175l-69.784,40.284l-204.166,117.879c47.625,63.796 136.516,83.291 207.171,42.504m265.191,54.767c9.634,-16.688 29.971,-23.33 47.325,-16.275l-0.025,-358.275c-17.35,7.041 -37.679,0.4 -47.3,-16.275c-9.633,-16.684 -5.216,-37.625 9.571,-49.121l-310.287,-179.125c-2.571,18.554 -18.492,32.833 -37.75,32.833c-19.263,0 -35.188,-14.292 -37.75,-32.854l-310.267,179.162c14.775,11.5 19.179,32.43 9.558,49.105c-9.633,16.683 -29.979,23.325 -47.329,16.262l0.021,358.283c17.35,-7.045 37.675,-0.4 47.308,16.28c9.629,16.679 5.213,37.616 -9.579,49.116l310.288,179.117c2.558,-18.571 18.479,-32.862 37.75,-32.862c19.279,0 35.208,14.316 37.758,32.895l310.258,-179.166c-14.771,-11.505 -19.179,-32.434 -9.55,-49.1" style="fill:#be00ff;fill-rule:nonzero;"/><path d="M771.37,645.94c-9.063,-5.233 -20.65,-2.133 -25.892,6.942c-5.233,9.058 -2.125,20.65 6.937,25.888c9.071,5.229 20.663,2.125 25.892,-6.942c5.238,-9.067 2.133,-20.654 -6.937,-25.888" style="fill:#be00ff;fill-rule:nonzero;"/><path d="M304.414,312.648c-68.513,39.562 -77.138,89.179 -75.225,160.233l254.266,-146.804c-49.72,-39.667 -120.62,-47.154 -179.041,-13.429" style="fill:#be00ff;fill-rule:nonzero;"/><path d="M1913.63,335.906c35.488,0 67.171,16.238 88.054,41.688c6.18,7.533 8.292,14.304 13.142,20.683c5.521,7.246 14.229,11.95 23.988,11.95c24.908,0 38.45,-28.117 24.545,-47.592c-30.025,-51.487 -85.829,-86.1 -149.729,-86.1c-95.671,0 -173.216,77.555 -173.216,173.221c0,95.663 77.545,173.217 173.216,173.217c60.754,0 114.2,-31.292 145.121,-78.638c4.404,-5.25 7.058,-12.004 7.058,-19.362c0,-16.608 -13.591,-30.204 -30.208,-30.204c-10.533,0 -19.846,5.462 -25.258,13.683c-2.225,3.388 -3.092,6.217 -5.704,9.696c-20.775,27.6 -53.8,45.45 -91.009,45.45c-62.875,0 -113.846,-50.971 -113.846,-113.842c0,-62.879 50.971,-113.85 113.846,-113.85" style="fill:#be00ff;fill-rule:nonzero;"/><path d="M2424.41,266.794c-17.258,0 -33.271,5.346 -47.737,14.663c-8.317,5.354 -15.879,11.912 -22.725,19.162l-0.729,0.771l-0.23,-1.667c-2.283,-14.312 -14.766,-25.346 -29.695,-25.346c-11.53,0 -21.6,6.58 -26.634,16.167c-4.283,8.142 -4.021,15.388 -4.021,24.283l0,249.013c0,19.279 5.359,40.771 30.655,40.771c24.375,0 30.654,-20.479 30.654,-39.45l0,-12.783l0,-62.717c0,-22.038 0.291,-44.308 1.8,-66.3c0.821,-11.9 1.946,-26.35 5.204,-37.863c4.617,-16.308 12.217,-34.491 25.212,-45.954c8.963,-7.904 19.517,-13.775 31.73,-13.775c15.166,0 18.112,9.892 35.262,6.384c13.692,-2.805 24.071,-14.984 24.071,-29.467c0,-25.713 -31.7,-35.892 -52.817,-35.892" style="fill:#be00ff;fill-rule:nonzero;"/><path d="M2812.36,561.093l0,-251.516c0,-5.325 0.312,-8.467 -1.225,-13.671c-3.663,-12.404 -15.196,-21.529 -28.75,-21.529c-13.896,0 -25.658,9.587 -29.008,22.475c-1.534,5.883 -1.155,10.233 -1.155,16.541c-11.437,-11.704 -24.437,-21.721 -39.2,-29.4c-22.954,-11.937 -47.841,-17.2 -73.654,-17.2c-46.979,0 -87.146,17.121 -120.15,50.484c-33.158,33.516 -49.921,74.2 -49.921,121.341c0,47.588 16.084,88.867 49.388,122.942c32.692,33.471 72.708,50.633 119.517,50.633c17.595,0 34.804,-2.479 51.312,-7.721c17.438,-5.529 43.621,-15.429 43.621,-36.904l0,-0.004c0,-15.312 -12.529,-27.85 -27.842,-27.85c-9.241,0 -14.046,4.496 -21.879,7.538c-13.083,5.091 -26.837,7.721 -41.225,7.721c-19.904,0 -38.333,-5.18 -55.496,-15.226c-17.658,-10.333 -31.229,-24.658 -41.271,-42.47c-10.029,-17.792 -15.404,-36.875 -15.404,-57.296c0,-20.479 5.25,-39.575 15.309,-57.388c9.945,-17.629 23.416,-31.725 40.937,-41.87c17.363,-10.059 36.167,-14.955 56.217,-14.955c31.237,0 57.691,10.588 79.612,32.913c19.571,19.937 29.688,43.516 31.963,70.333l0.4,-0.008l0.046,8.125c0.033,1.304 0.054,2.604 0.054,3.921c0,0.775 -0.009,1.55 -0.021,2.32l0.792,118.788c0.041,6.992 -1.067,14.513 1.079,21.212c3.704,11.551 14.562,19.976 27.296,19.976c13.275,0 24.512,-9.146 27.729,-21.446c1.571,-5.992 0.929,-14.513 0.929,-20.809" style="fill:#be00ff;fill-rule:nonzero;"/><path d="M990.01,351.763c41.72,-24.087 92.358,-18.741 127.87,9.592l-178.375,102.983c-5.991,-50.866 2.45,-84.833 50.505,-112.575m170.191,119.092c-4.016,11.671 -6.662,20.808 -12.183,31.546c-9.65,18.758 -24.625,35.058 -44.246,46.387c-50.467,29.134 -113.95,15.213 -147.967,-30.354l195.65,-112.954l18.125,-10.467c12.255,-7.07 23.246,-11.783 23.246,-28.896c0,-6.687 -2.425,-12.837 -6.441,-17.612c-51.313,-70.504 -148.621,-92.337 -225.825,-47.762c-59.384,34.279 -90.7,98.508 -85.884,162.595l6.3,34.855c3.8,13.141 9.238,26.041 16.384,38.412c47.679,82.592 153.279,110.887 235.862,63.204c38.138,-22.016 75.738,-66.541 81.45,-111.662c3.621,-28.271 -37.683,-47.35 -54.471,-17.292" style="fill:#be00ff;fill-rule:nonzero;"/><path d="M2243.97,274.631c-3.688,-0.504 -8.254,-0.254 -11.921,-0.254l-27.342,0l0,-80.929c0,-2.754 0.054,-5.508 -0.279,-8.229c-1.825,-14.792 -14.533,-26.342 -29.792,-26.342c-15.129,0 -27.737,11.346 -29.737,25.95c-0.375,2.721 -0.329,5.404 -0.329,8.142l0,81.408l-27.121,0c0,0 -2.917,0.192 -3.188,0.229c-13.454,1.734 -23.941,13.309 -23.941,27.217c0,13.579 9.987,24.933 22.987,27.075c9.242,1.529 22.171,0.371 31.263,0.371l0,241.958c0,2.658 -0.013,5.208 0.387,7.863c2.192,14.395 14.7,25.52 29.679,25.52c14.838,0 27.242,-10.904 29.609,-25.087c0.562,-3.371 0.462,-6.8 0.462,-10.204l0,-240.05l28.65,0c3.379,0 7.463,0.208 10.846,-0.284c13.246,-1.92 23.504,-13.404 23.504,-27.162c0,-13.838 -10.375,-25.371 -23.737,-27.192" style="fill:#be00ff;fill-rule:nonzero;"/><path d="M1485.8,351.763c41.729,-24.087 92.358,-18.741 127.867,9.592l-178.367,102.983c-5.992,-50.866 2.446,-84.833 50.5,-112.575m170.192,119.092c-4.021,11.671 -6.667,20.808 -12.184,31.546c-9.65,18.758 -24.616,35.058 -44.241,46.387c-50.467,29.134 -113.954,15.213 -147.963,-30.354l195.638,-112.954l18.129,-10.467c12.254,-7.07 23.25,-11.783 23.25,-28.896c0,-6.687 -2.429,-12.837 -6.446,-17.612c-51.312,-70.504 -148.625,-92.337 -225.829,-47.762c-59.375,34.279 -90.696,98.508 -85.879,162.595l6.3,34.855c3.808,13.141 9.233,26.041 16.379,38.412c47.679,82.592 153.283,110.887 235.867,63.204c38.137,-22.016 75.737,-66.541 81.454,-111.662c3.616,-28.271 -37.692,-47.35 -54.475,-17.292" style="fill:#be00ff;fill-rule:nonzero;"/><path d="M1293.74,154.795c-15.138,0 -27.75,11.333 -29.788,25.937c-0.208,1.517 -0.283,2.642 -0.283,4.129l0,389.675c0,2.346 0.233,4.475 0.787,6.834c3.121,13.275 15.092,23.241 29.284,23.241c13.762,0 25.441,-9.375 28.975,-22.054c0.75,-2.704 1.096,-5.287 1.096,-8.021l0,-389.675c0,-1.746 -0.121,-3.221 -0.43,-5.004c-2.395,-14.179 -14.812,-25.062 -29.641,-25.062" style="fill:#be00ff;fill-rule:nonzero;"/></g></g></svg>