<?xml version="1.0" encoding="UTF-8" standalone="no"?>
<!DOCTYPE svg PUBLIC "-//W3C//DTD SVG 1.1//EN" "http://www.w3.org/Graphics/SVG/1.1/DTD/svg11.dtd">
<svg width="100%" height="100%" viewBox="0 0 756 262" version="1.1" xmlns="http://www.w3.org/2000/svg" xmlns:xlink="http://www.w3.org/1999/xlink" xml:space="preserve" xmlns:serif="http://www.serif.com/" style="fill-rule:evenodd;clip-rule:evenodd;stroke-linejoin:round;stroke-miterlimit:1.41421;">
    <g id="ArtBoard1" transform="matrix(1,0,0,1,-87.7456,-83.3269)">
        <rect x="87.746" y="83.327" width="755.37" height="261.365" style="fill:none;"/>
        <g id="Layer_1" transform="matrix(1,0,0,1,0.297729,0.00920126)">
            <g>
                <g>
                    <path d="M618.4,187.6C626.9,187.6 634.5,191.5 639.5,197.6C641,199.4 641.5,201 642.7,202.6C644,204.3 646.1,205.5 648.5,205.5C654.5,205.5 657.7,198.8 654.4,194.1C647.2,181.7 633.8,173.4 618.5,173.4C595.5,173.4 576.9,192 576.9,215C576.9,238 595.5,256.6 618.5,256.6C633.1,256.6 645.9,249.1 653.3,237.7C654.4,236.4 655,234.8 655,233.1C655,229.1 651.7,225.9 647.8,225.9C645.3,225.9 643,227.2 641.7,229.2C641.2,230 641,230.7 640.3,231.5C635.3,238.1 627.4,242.4 618.5,242.4C603.4,242.4 591.2,230.2 591.2,215.1C591.1,199.9 603.3,187.6 618.4,187.6Z" style="fill:rgb(190,0,255);fill-rule:nonzero;"/>
                    <path d="M741,171C736.9,171 733,172.3 729.5,174.5C727.5,175.8 725.7,177.4 724,179.1L723.8,179.3L723.7,178.9C723.2,175.5 720.2,172.8 716.6,172.8C713.8,172.8 711.4,174.4 710.2,176.7C709.2,178.7 709.2,180.4 709.2,182.5L709.2,242.3C709.2,246.9 710.5,252.1 716.6,252.1C722.4,252.1 724,247.2 724,242.6L724,239.5L724,224.4C724,219.1 724.1,213.8 724.4,208.5C724.6,205.6 724.9,202.2 725.6,199.4C726.7,195.5 728.5,191.1 731.7,188.4C733.9,186.5 736.4,185.1 739.3,185.1C742.9,185.1 743.6,187.5 747.8,186.6C751.1,185.9 753.6,183 753.6,179.5C753.7,173.5 746.1,171 741,171Z" style="fill:rgb(190,0,255);fill-rule:nonzero;"/>
                    <path d="M834.1,241.7L834.1,181.3C834.1,180 834.2,179.3 833.8,178C832.9,175 830.2,172.8 826.9,172.8C823.6,172.8 820.7,175.1 819.9,178.2C819.5,179.6 819.6,180.7 819.6,182.2C816.9,179.4 813.7,177 810.2,175.1C804.7,172.2 798.7,171 792.5,171C781.2,171 771.6,175.1 763.7,183.1C755.7,191.1 751.7,200.9 751.7,212.2C751.7,223.6 755.6,233.5 763.6,241.7C771.4,249.7 781.1,253.9 792.3,253.9C796.5,253.9 800.7,253.3 804.6,252C808.8,250.7 815.1,248.3 815.1,243.1C815.1,239.4 812.1,236.4 808.4,236.4C806.2,236.4 805,237.5 803.1,238.2C800,239.4 796.7,240.1 793.2,240.1C788.4,240.1 784,238.9 779.9,236.4C775.7,233.9 772.4,230.5 770,226.2C767.6,221.9 766.3,217.4 766.3,212.4C766.3,207.5 767.6,202.9 770,198.6C772.4,194.4 775.6,191 779.8,188.6C784,186.2 788.5,185 793.3,185C800.8,185 807.1,187.5 812.4,192.9C817.1,197.7 819.5,203.3 820.1,209.8L820.2,209.8L820.2,213.3L820.4,241.8C820.4,243.5 820.1,245.3 820.7,246.9C821.6,249.7 824.2,251.7 827.3,251.7C830.5,251.7 833.2,249.5 834,246.6C834.3,245.2 834.1,243.2 834.1,241.7Z" style="fill:rgb(190,0,255);fill-rule:nonzero;"/>
                    <path d="M437.6,220C436.6,222.8 436,225 434.7,227.6C432.4,232.1 428.8,236 424.1,238.7C412,245.7 396.8,242.4 388.6,231.4L435.6,204.3L439.9,201.8C442.8,200.1 445.5,199 445.5,194.9C445.5,193.3 444.9,191.8 444,190.7C431.7,173.8 408.3,168.5 389.8,179.2C375.5,187.4 368,202.8 369.2,218.2L370.7,226.6C371.6,229.8 372.9,232.8 374.6,235.8C386,255.6 411.4,262.4 431.2,251C440.4,245.7 449.4,235 450.7,224.2C451.5,217.4 441.6,212.8 437.6,220ZM396.7,191.4C406.7,185.6 418.9,186.9 427.4,193.7L384.6,218.4C383.2,206.2 385.2,198.1 396.7,191.4Z" style="fill:rgb(190,0,255);fill-rule:nonzero;"/>
                    <path d="M697.7,172.9C696.8,172.8 695.7,172.8 694.8,172.8L688.2,172.8L688.2,153.4C688.2,152.7 688.2,152.1 688.1,151.4C687.7,147.9 684.6,145.1 681,145.1C677.4,145.1 674.3,147.8 673.9,151.3C673.8,152 673.8,152.6 673.8,153.3L673.8,172.8C671.6,172.8 669.5,172.8 667.3,172.8C667.3,172.8 666.6,172.8 666.5,172.9C663.3,173.3 660.8,176.1 660.8,179.4C660.8,182.7 663.2,185.4 666.3,185.9C668.5,186.3 671.6,186 673.8,186L673.8,244.1C673.8,244.7 673.8,245.3 673.9,246C674.4,249.5 677.4,252.1 681,252.1C684.6,252.1 687.5,249.5 688.1,246.1C688.2,245.3 688.2,244.5 688.2,243.7L688.2,186L695.1,186C695.9,186 696.9,186 697.7,185.9C700.9,185.4 703.3,182.7 703.3,179.4C703.4,176.1 700.9,173.4 697.7,172.9Z" style="fill:rgb(190,0,255);fill-rule:nonzero;"/>
                    <path d="M556.6,220C555.6,222.8 555,225 553.7,227.6C551.4,232.1 547.8,236 543.1,238.7C531,245.7 515.8,242.4 507.6,231.4L554.6,204.3L559,201.8C561.9,200.1 564.6,199 564.6,194.9C564.6,193.3 564,191.8 563.1,190.7C550.8,173.8 527.4,168.5 508.9,179.2C494.7,187.4 487.1,202.8 488.3,218.2L489.8,226.6C490.7,229.8 492,232.8 493.7,235.8C505.1,255.6 530.5,262.4 550.3,251C559.5,245.7 568.5,235 569.8,224.2C570.5,217.4 560.6,212.8 556.6,220ZM515.7,191.4C525.7,185.6 537.9,186.9 546.4,193.7L503.6,218.4C502.2,206.2 504.2,198.1 515.7,191.4Z" style="fill:rgb(190,0,255);fill-rule:nonzero;"/>
                    <path d="M469.6,144.2C466,144.2 462.9,146.9 462.5,150.4C462.5,150.8 462.4,151 462.4,151.4L462.4,244.9C462.4,245.5 462.5,246 462.6,246.5C463.3,249.7 466.2,252.1 469.6,252.1C472.9,252.1 475.7,249.9 476.6,246.8C476.8,246.2 476.9,245.5 476.9,244.9L476.9,151.4C476.9,151 476.9,150.6 476.8,150.2C476.2,146.8 473.2,144.2 469.6,144.2Z" style="fill:rgb(190,0,255);fill-rule:nonzero;"/>
                </g>
                <circle cx="221.1" cy="214" r="125" style="fill:rgb(190,0,255);"/>
                <g>
                    <circle cx="221.6" cy="316.9" r="4.5" style="fill:white;"/>
                    <g transform="matrix(0.5,-0.866,0.866,0.5,-74.5013,196.013)">
                        <circle cx="132.5" cy="162.5" r="4.5" style="fill:white;"/>
                    </g>
                    <g transform="matrix(0.8661,-0.4999,0.4999,0.8661,-114.966,101.786)">
                        <circle cx="132.5" cy="265.5" r="4.5" style="fill:white;"/>
                    </g>
                    <g transform="matrix(0.866,-0.5001,0.5001,0.866,-39.6211,177.206)">
                        <circle cx="310.8" cy="162.5" r="4.5" style="fill:white;"/>
                    </g>
                    <circle cx="221.6" cy="111.1" r="4.5" style="fill:white;"/>
                    <path d="M302.9,260.9C305.2,256.9 310.1,255.3 314.3,257L314.3,171C310.1,172.7 305.3,171.1 302.9,167.1C300.6,163.1 301.6,158.1 305.2,155.3L230.7,112.3C230.1,116.8 226.3,120.2 221.6,120.2C217,120.2 213.2,116.8 212.5,112.3L138,155.3C141.5,158.1 142.6,163.1 140.3,167.1C138,171.1 133.1,172.7 128.9,171L128.9,257C133.1,255.3 137.9,256.9 140.3,260.9C142.6,264.9 141.6,269.9 138,272.7L212.5,315.7C213.1,311.2 216.9,307.8 221.6,307.8C226.2,307.8 230.1,311.2 230.7,315.7L305.2,272.7C301.6,269.9 300.6,264.9 302.9,260.9ZM239.2,247.8C247.5,243 253.4,235.5 256.2,227.1C260.6,214.2 280.5,221.4 273.1,238.2C273,238.4 273,238.5 272.9,238.7L297.4,252.8C299.5,254 300.2,256.7 299,258.8C297.8,260.9 295.1,261.6 293,260.4L268.7,246.4C263.9,253.8 257.5,260.3 249.3,265C242,269.2 234.4,271.7 226.4,272.5L226.4,299C226.4,301.4 224.3,303.4 221.9,303.4C219.5,303.4 217.4,301.4 217.4,299L217.4,272.6C200.4,271.7 182.9,262.9 172.3,247.5L150.2,260.3C148.1,261.5 145.4,260.8 144.2,258.7C143,256.6 143.7,253.9 145.8,252.7L167.9,240C166.4,237 165.3,233.9 164.3,230.8L162.2,219.1C161.4,208.5 163.6,197.8 168.4,188.4L145.8,175.4C143.7,174.2 143,171.5 144.2,169.4C145.4,167.3 148.1,166.6 150.2,167.8L172.9,180.9C177.6,174.4 183.7,168.7 191.1,164.5C199.4,159.7 208.4,157.2 217.4,156.8L217.4,129C217.4,126.6 219.5,124.6 221.9,124.6C224.3,124.6 226.4,126.6 226.4,129L226.4,156.9C242.4,158.6 258.4,167.4 268.3,182.1L293.1,167.7C295.2,166.5 297.8,167.2 299,169.3C300.2,171.4 299.5,174.1 297.4,175.3L263.6,194.8C263.5,194.9 263.3,195 263.2,195L255.2,199.6L238.5,209.3L189.5,237.6C200.9,252.9 222.3,257.5 239.2,247.8Z" style="fill:white;fill-rule:nonzero;"/>
                    <g transform="matrix(0.5,-0.866,0.866,0.5,-74.5084,401.877)">
                        <circle cx="310.8" cy="265.5" r="4.5" style="fill:white;"/>
                    </g>
                    <path d="M201,181.5C184.6,191 182.5,202.9 182.9,220L243.9,184.8C232,175.2 215,173.4 201,181.5Z" style="fill:white;fill-rule:nonzero;"/>
                </g>
            </g>
        </g>
    </g>
</svg>
