<svg xmlns="http://www.w3.org/2000/svg" style="display: none"><symbol id="address-book" viewBox="0 0 448 512">    <title id="address-book-title">Address Book</title>
    <path d="M436 160c6.627 0 12-5.373 12-12v-40c0-6.627-5.373-12-12-12h-20V48c0-26.51-21.49-48-48-48H48C21.49 0 0 21.49 0 48v416c0 26.51 21.49 48 48 48h320c26.51 0 48-21.49 48-48v-48h20c6.627 0 12-5.373 12-12v-40c0-6.627-5.373-12-12-12h-20v-64h20c6.627 0 12-5.373 12-12v-40c0-6.627-5.373-12-12-12h-20v-64h20zm-74 304H54a6 6 0 0 1-6-6V54a6 6 0 0 1 6-6h308a6 6 0 0 1 6 6v404a6 6 0 0 1-6 6zM128 208c0-44.183 35.817-80 80-80s80 35.817 80 80-35.817 80-80 80-80-35.817-80-80zm208 133.477V360c0 13.255-10.745 24-24 24H104c-13.255 0-24-10.745-24-24v-18.523c0-22.026 14.99-41.225 36.358-46.567l35.657-8.914c29.101 20.932 74.509 26.945 111.97 0l35.657 8.914C321.01 300.252 336 319.452 336 341.477z"></path>
  </symbol>
  <symbol id="address-card" viewBox="0 0 512 512">
    <title id="address-card-title">Address Card</title>
    <path d="M464 64H48C21.49 64 0 85.49 0 112v288c0 26.51 21.49 48 48 48h416c26.51 0 48-21.49 48-48V112c0-26.51-21.49-48-48-48zm-6 336H54a6 6 0 0 1-6-6V118a6 6 0 0 1 6-6h404a6 6 0 0 1 6 6v276a6 6 0 0 1-6 6zm-54-176H300c-6.627 0-12-5.373-12-12v-16c0-6.627 5.373-12 12-12h104c6.627 0 12 5.373 12 12v16c0 6.627-5.373 12-12 12zm0 72H300c-6.627 0-12-5.373-12-12v-16c0-6.627 5.373-12 12-12h104c6.627 0 12 5.373 12 12v16c0 6.627-5.373 12-12 12zM176 160c33.137 0 60 26.863 60 60s-26.863 60-60 60-60-26.863-60-60 26.863-60 60-60zm68.731 125.183l-26.742-6.686c-28.096 20.209-62.152 15.699-83.978 0l-26.742 6.686C91.243 289.189 80 303.589 80 320.108V334c0 9.941 8.059 18 18 18h156c9.941 0 18-8.059 18-18v-13.892c0-16.519-11.243-30.919-27.269-34.925z"></path>
  </symbol>
  <symbol id="calendar-alt" viewBox="0 0 448 512">
    <title id="calendar-alt-title">Alternate Calendar</title>
    <path d="M148 288h-40c-6.6 0-12-5.4-12-12v-40c0-6.6 5.4-12 12-12h40c6.6 0 12 5.4 12 12v40c0 6.6-5.4 12-12 12zm108-12v-40c0-6.6-5.4-12-12-12h-40c-6.6 0-12 5.4-12 12v40c0 6.6 5.4 12 12 12h40c6.6 0 12-5.4 12-12zm96 0v-40c0-6.6-5.4-12-12-12h-40c-6.6 0-12 5.4-12 12v40c0 6.6 5.4 12 12 12h40c6.6 0 12-5.4 12-12zm-96 96v-40c0-6.6-5.4-12-12-12h-40c-6.6 0-12 5.4-12 12v40c0 6.6 5.4 12 12 12h40c6.6 0 12-5.4 12-12zm-96 0v-40c0-6.6-5.4-12-12-12h-40c-6.6 0-12 5.4-12 12v40c0 6.6 5.4 12 12 12h40c6.6 0 12-5.4 12-12zm192 0v-40c0-6.6-5.4-12-12-12h-40c-6.6 0-12 5.4-12 12v40c0 6.6 5.4 12 12 12h40c6.6 0 12-5.4 12-12zm96-260v352c0 26.5-21.5 48-48 48H48c-26.5 0-48-21.5-48-48V112c0-26.5 21.5-48 48-48h48V12c0-6.6 5.4-12 12-12h40c6.6 0 12 5.4 12 12v52h128V12c0-6.6 5.4-12 12-12h40c6.6 0 12 5.4 12 12v52h48c26.5 0 48 21.5 48 48zm-48 346V160H48v298c0 3.3 2.7 6 6 6h340c3.3 0 6-2.7 6-6z"></path>
  </symbol>
  <symbol id="clipboard" viewBox="0 0 384 512">
    <title id="clipboard-title">Clipboard</title>
    <path d="M336 64h-80c0-35.29-28.71-64-64-64s-64 28.71-64 64H48C21.49 64 0 85.49 0 112v352c0 26.51 21.49 48 48 48h288c26.51 0 48-21.49 48-48V112c0-26.51-21.49-48-48-48zm-6 400H54a6 6 0 0 1-6-6V118a6 6 0 0 1 6-6h42v36c0 6.627 5.373 12 12 12h168c6.627 0 12-5.373 12-12v-36h42a6 6 0 0 1 6 6v340a6 6 0 0 1-6 6zM192 40c13.255 0 24 10.745 24 24s-10.745 24-24 24-24-10.745-24-24 10.745-24 24-24"></path>
  </symbol>
  <symbol id="clock" viewBox="0 0 512 512">
    <title id="clock-title">Clock</title>
    <path d="M256 8C119 8 8 119 8 256s111 248 248 248 248-111 248-248S393 8 256 8zm0 448c-110.5 0-200-89.5-200-200S145.5 56 256 56s200 89.5 200 200-89.5 200-200 200zm61.8-104.4l-84.9-61.7c-3.1-2.3-4.9-5.9-4.9-9.7V116c0-6.6 5.4-12 12-12h32c6.6 0 12 5.4 12 12v141.7l66.8 48.6c5.4 3.9 6.5 11.4 2.6 16.8L334.6 349c-3.9 5.3-11.4 6.5-16.8 2.6z"></path>
  </symbol>
  <symbol id="clone" viewBox="0 0 512 512">
    <title id="clone-title">Clone</title>
    <path d="M464 0H144c-26.51 0-48 21.49-48 48v48H48c-26.51 0-48 21.49-48 48v320c0 26.51 21.49 48 48 48h320c26.51 0 48-21.49 48-48v-48h48c26.51 0 48-21.49 48-48V48c0-26.51-21.49-48-48-48zM362 464H54a6 6 0 0 1-6-6V150a6 6 0 0 1 6-6h42v224c0 26.51 21.49 48 48 48h224v42a6 6 0 0 1-6 6zm96-96H150a6 6 0 0 1-6-6V54a6 6 0 0 1 6-6h308a6 6 0 0 1 6 6v308a6 6 0 0 1-6 6z"></path>
  </symbol>
  <symbol id="credit-card" viewBox="0 0 576 512">
    <title id="credit-card-title">Credit Card</title>
    <path d="M527.9 32H48.1C21.5 32 0 53.5 0 80v352c0 26.5 21.5 48 48.1 48h479.8c26.6 0 48.1-21.5 48.1-48V80c0-26.5-21.5-48-48.1-48zM54.1 80h467.8c3.3 0 6 2.7 6 6v42H48.1V86c0-3.3 2.7-6 6-6zm467.8 352H54.1c-3.3 0-6-2.7-6-6V256h479.8v170c0 3.3-2.7 6-6 6zM192 332v40c0 6.6-5.4 12-12 12h-72c-6.6 0-12-5.4-12-12v-40c0-6.6 5.4-12 12-12h72c6.6 0 12 5.4 12 12zm192 0v40c0 6.6-5.4 12-12 12H236c-6.6 0-12-5.4-12-12v-40c0-6.6 5.4-12 12-12h136c6.6 0 12 5.4 12 12z"></path>
  </symbol>
  <symbol id="handshake" viewBox="0 0 640 512">
    <title id="handshake-title">Handshake</title>
    <path d="M616 96h-48c-7.107 0-13.49 3.091-17.884 8H526.59l-31.13-36.3-.16-.18A103.974 103.974 0 0 0 417.03 32h-46.55c-17.75 0-34.9 4.94-49.69 14.01C304.33 36.93 285.67 32 266.62 32h-32.11c-28.903 0-57.599 11.219-79.2 32.8L116.12 104H89.884C85.49 99.091 79.107 96 72 96H24c-13.255 0-24 10.745-24 24v240c0 13.255 10.745 24 24 24h48c10.449 0 19.334-6.68 22.629-16h18.801l75.35 67.57c25.542 26.45 59.925 44.43 96.58 44.43 16.39 0 32.28-3.85 46.1-10.93 24.936.496 51.101-10.368 69.07-31.41 19.684-5.579 37.503-17.426 50.72-34.6 20.989-4.401 40.728-16.492 53.42-35.06h40.701c3.295 9.32 12.18 16 22.629 16h48c13.255 0 24-10.745 24-24V120c0-13.255-10.745-24-24-24zM48 352c-8.837 0-16-7.163-16-16s7.163-16 16-16 16 7.163 16 16-7.163 16-16 16zm412.52-5.76c-15.35 14.295-36.884 11.328-39.95 8 1.414 13.382-18.257 41.043-49.08 38.88-5.541 18.523-28.218 33.826-51.49 25.75-8.89 8.89-22.46 13.13-34.64 13.13-24.95 0-47.77-14.54-63.14-30.91l-81.3-72.91a31.976 31.976 0 0 0-21.36-8.18H96V152h26.75c8.48 0 16.62-3.37 22.62-9.37l43.88-43.88A64.004 64.004 0 0 1 234.51 80h32.11c5.8 0 11.51.79 17 2.3l-43.27 50.49c-23.56 27.48-23.84 67.62-.66 95.44 32.388 38.866 91.378 39.228 124.48 1.98l25.98-30.08L462.59 296c13.44 14.6 10.95 38.13-2.07 50.24zM544 320h-24.458c.104-20.261-6.799-39.33-19.762-54.4L421.7 162.28c4.51-9.51 2.34-21.23-6.01-28.45-10.075-8.691-25.23-7.499-33.86 2.48l-53.63 62.12c-13.828 15.41-38.223 15.145-51.64-.93a25.857 25.857 0 0 1 .23-33.47l57.92-67.58A47.09 47.09 0 0 1 370.48 80h46.55c16.11 0 31.44 6.94 42.07 19.04L504.52 152H544v168zm48 32c-8.837 0-16-7.163-16-16s7.163-16 16-16 16 7.163 16 16-7.163 16-16 16z"></path>
  </symbol>
  <symbol id="address-book" viewBox="0 0 448 512">
    <title id="address-book-title">Address Book</title>
    <path d="M436 160c6.627 0 12-5.373 12-12v-40c0-6.627-5.373-12-12-12h-20V48c0-26.51-21.49-48-48-48H48C21.49 0 0 21.49 0 48v416c0 26.51 21.49 48 48 48h320c26.51 0 48-21.49 48-48v-48h20c6.627 0 12-5.373 12-12v-40c0-6.627-5.373-12-12-12h-20v-64h20c6.627 0 12-5.373 12-12v-40c0-6.627-5.373-12-12-12h-20v-64h20zm-228-32c44.183 0 80 35.817 80 80s-35.817 80-80 80-80-35.817-80-80 35.817-80 80-80zm128 232c0 13.255-10.745 24-24 24H104c-13.255 0-24-10.745-24-24v-18.523c0-22.026 14.99-41.225 36.358-46.567l35.657-8.914c29.101 20.932 74.509 26.945 111.97 0l35.657 8.914C321.01 300.252 336 319.452 336 341.477V360z"></path>
  </symbol>
  <symbol id="address-card" viewBox="0 0 512 512">
    <title id="address-card-title">Address Card</title>
    <path d="M464 64H48C21.49 64 0 85.49 0 112v288c0 26.51 21.49 48 48 48h416c26.51 0 48-21.49 48-48V112c0-26.51-21.49-48-48-48zm-288 80c38.66 0 70 31.34 70 70s-31.34 70-70 70-70-31.34-70-70 31.34-70 70-70zm112 203c0 11.598-9.402 21-21 21H85c-11.598 0-21-9.402-21-21v-16.207c0-19.272 13.116-36.072 31.813-40.746l31.2-7.8c25.464 18.316 65.195 23.577 97.974 0l31.2 7.8C274.884 294.721 288 311.52 288 330.793V347zm160-39c0 6.627-5.373 12-12 12H332c-6.627 0-12-5.373-12-12v-8c0-6.627 5.373-12 12-12h104c6.627 0 12 5.373 12 12v8zm0-64c0 6.627-5.373 12-12 12H332c-6.627 0-12-5.373-12-12v-8c0-6.627 5.373-12 12-12h104c6.627 0 12 5.373 12 12v8zm0-64c0 6.627-5.373 12-12 12H332c-6.627 0-12-5.373-12-12v-8c0-6.627 5.373-12 12-12h104c6.627 0 12 5.373 12 12v8z"></path>
  </symbol>
  <symbol id="angle-double-right" viewBox="0 0 448 512">
    <title id="angle-double-right-title">Angle Double Right</title>
    <path d="M224.3 273l-136 136c-9.4 9.4-24.6 9.4-33.9 0l-22.6-22.6c-9.4-9.4-9.4-24.6 0-33.9l96.4-96.4-96.4-96.4c-9.4-9.4-9.4-24.6 0-33.9L54.3 103c9.4-9.4 24.6-9.4 33.9 0l136 136c9.5 9.4 9.5 24.6.1 34zm192-34l-136-136c-9.4-9.4-24.6-9.4-33.9 0l-22.6 22.6c-9.4 9.4-9.4 24.6 0 33.9l96.4 96.4-96.4 96.4c-9.4 9.4-9.4 24.6 0 33.9l22.6 22.6c9.4 9.4 24.6 9.4 33.9 0l136-136c9.4-9.2 9.4-24.4 0-33.8z"></path>
  </symbol>
  <symbol id="calendar-alt" viewBox="0 0 448 512">
    <title id="calendar-alt-title">Alternate Calendar</title>
    <path d="M436 160H12c-6.6 0-12-5.4-12-12v-36c0-26.5 21.5-48 48-48h48V12c0-6.6 5.4-12 12-12h40c6.6 0 12 5.4 12 12v52h128V12c0-6.6 5.4-12 12-12h40c6.6 0 12 5.4 12 12v52h48c26.5 0 48 21.5 48 48v36c0 6.6-5.4 12-12 12zM12 192h424c6.6 0 12 5.4 12 12v260c0 26.5-21.5 48-48 48H48c-26.5 0-48-21.5-48-48V204c0-6.6 5.4-12 12-12zm116 204c0-6.6-5.4-12-12-12H76c-6.6 0-12 5.4-12 12v40c0 6.6 5.4 12 12 12h40c6.6 0 12-5.4 12-12v-40zm0-128c0-6.6-5.4-12-12-12H76c-6.6 0-12 5.4-12 12v40c0 6.6 5.4 12 12 12h40c6.6 0 12-5.4 12-12v-40zm128 128c0-6.6-5.4-12-12-12h-40c-6.6 0-12 5.4-12 12v40c0 6.6 5.4 12 12 12h40c6.6 0 12-5.4 12-12v-40zm0-128c0-6.6-5.4-12-12-12h-40c-6.6 0-12 5.4-12 12v40c0 6.6 5.4 12 12 12h40c6.6 0 12-5.4 12-12v-40zm128 128c0-6.6-5.4-12-12-12h-40c-6.6 0-12 5.4-12 12v40c0 6.6 5.4 12 12 12h40c6.6 0 12-5.4 12-12v-40zm0-128c0-6.6-5.4-12-12-12h-40c-6.6 0-12 5.4-12 12v40c0 6.6 5.4 12 12 12h40c6.6 0 12-5.4 12-12v-40z"></path>
  </symbol>
  <symbol id="caret-down" viewBox="0 0 320 512">
    <title id="caret-down-title">Caret Down</title>
    <path d="M31.3 192h257.3c17.8 0 26.7 21.5 14.1 34.1L174.1 354.8c-7.8 7.8-20.5 7.8-28.3 0L17.2 226.1C4.6 213.5 13.5 192 31.3 192z"></path>
  </symbol>
  <symbol id="clipboard" viewBox="0 0 384 512">
    <title id="clipboard-title">Clipboard</title>
    <path d="M384 112v352c0 26.51-21.49 48-48 48H48c-26.51 0-48-21.49-48-48V112c0-26.51 21.49-48 48-48h80c0-35.29 28.71-64 64-64s64 28.71 64 64h80c26.51 0 48 21.49 48 48zM192 40c-13.255 0-24 10.745-24 24s10.745 24 24 24 24-10.745 24-24-10.745-24-24-24m96 114v-20a6 6 0 0 0-6-6H102a6 6 0 0 0-6 6v20a6 6 0 0 0 6 6h180a6 6 0 0 0 6-6z"></path>
  </symbol>
  <symbol id="clock" viewBox="0 0 512 512">
    <title id="clock-title">Clock</title>
    <path d="M256 8C119 8 8 119 8 256s111 248 248 248 248-111 248-248S393 8 256 8zm57.1 350.1L224.9 294c-3.1-2.3-4.9-5.9-4.9-9.7V116c0-6.6 5.4-12 12-12h48c6.6 0 12 5.4 12 12v137.7l63.5 46.2c5.4 3.9 6.5 11.4 2.6 16.8l-28.2 38.8c-3.9 5.3-11.4 6.5-16.8 2.6z"></path>
  </symbol>
  <symbol id="clone" viewBox="0 0 512 512">
    <title id="clone-title">Clone</title>
    <path d="M464 0c26.51 0 48 21.49 48 48v288c0 26.51-21.49 48-48 48H176c-26.51 0-48-21.49-48-48V48c0-26.51 21.49-48 48-48h288M176 416c-44.112 0-80-35.888-80-80V128H48c-26.51 0-48 21.49-48 48v288c0 26.51 21.49 48 48 48h288c26.51 0 48-21.49 48-48v-48H176z"></path>
  </symbol>
  <symbol id="cog" viewBox="0 0 512 512">
    <title id="cog-title">cog</title>
    <path d="M444.788 291.1l42.616 24.599c4.867 2.809 7.126 8.618 5.459 13.985-11.07 35.642-29.97 67.842-54.689 94.586a12.016 12.016 0 0 1-14.832 2.254l-42.584-24.595a191.577 191.577 0 0 1-60.759 35.13v49.182a12.01 12.01 0 0 1-9.377 11.718c-34.956 7.85-72.499 8.256-109.219.007-5.49-1.233-9.403-6.096-9.403-11.723v-49.184a191.555 191.555 0 0 1-60.759-35.13l-42.584 24.595a12.016 12.016 0 0 1-14.832-2.254c-24.718-26.744-43.619-58.944-54.689-94.586-1.667-5.366.592-11.175 5.459-13.985L67.212 291.1a193.48 193.48 0 0 1 0-70.199l-42.616-24.599c-4.867-2.809-7.126-8.618-5.459-13.985 11.07-35.642 29.97-67.842 54.689-94.586a12.016 12.016 0 0 1 14.832-2.254l42.584 24.595a191.577 191.577 0 0 1 60.759-35.13V25.759a12.01 12.01 0 0 1 9.377-11.718c34.956-7.85 72.499-8.256 109.219-.007 5.49 1.233 9.403 6.096 9.403 11.723v49.184a191.555 191.555 0 0 1 60.759 35.13l42.584-24.595a12.016 12.016 0 0 1 14.832 2.254c24.718 26.744 43.619 58.944 54.689 94.586 1.667 5.366-.592 11.175-5.459 13.985L444.788 220.9a193.485 193.485 0 0 1 0 70.2zM336 256c0-44.112-35.888-80-80-80s-80 35.888-80 80 35.888 80 80 80 80-35.888 80-80z"></path>
  </symbol>
  <symbol id="credit-card" viewBox="0 0 576 512">
    <title id="credit-card-title">Credit Card</title>
    <path d="M0 432c0 26.5 21.5 48 48 48h480c26.5 0 48-21.5 48-48V256H0v176zm192-68c0-6.6 5.4-12 12-12h136c6.6 0 12 5.4 12 12v40c0 6.6-5.4 12-12 12H204c-6.6 0-12-5.4-12-12v-40zm-128 0c0-6.6 5.4-12 12-12h72c6.6 0 12 5.4 12 12v40c0 6.6-5.4 12-12 12H76c-6.6 0-12-5.4-12-12v-40zM576 80v48H0V80c0-26.5 21.5-48 48-48h480c26.5 0 48 21.5 48 48z"></path>
  </symbol>
  <symbol id="exchange-alt" viewBox="0 0 512 512">
    <title id="exchange-alt-title">Alternate Exchange</title>
    <path d="M0 168v-16c0-13.255 10.745-24 24-24h360V80c0-21.367 25.899-32.042 40.971-16.971l80 80c9.372 9.373 9.372 24.569 0 33.941l-80 80C409.956 271.982 384 261.456 384 240v-48H24c-13.255 0-24-10.745-24-24zm488 152H128v-48c0-21.314-25.862-32.08-40.971-16.971l-80 80c-9.372 9.373-9.372 24.569 0 33.941l80 80C102.057 463.997 128 453.437 128 432v-48h360c13.255 0 24-10.745 24-24v-16c0-13.255-10.745-24-24-24z"></path>
  </symbol>
  <symbol id="handshake" viewBox="0 0 640 512">
    <title id="handshake-title">Handshake</title>
    <path d="M72 112H24c-13.255 0-24 10.745-24 24v208c0 13.255 10.745 24 24 24h48c13.255 0 24-10.745 24-24V136c0-13.255-10.745-24-24-24zM48 340c-11.046 0-20-8.954-20-20s8.954-20 20-20 20 8.954 20 20-8.954 20-20 20zm568-228h-48c-13.255 0-24 10.745-24 24v208c0 13.255 10.745 24 24 24h48c13.255 0 24-10.745 24-24V136c0-13.255-10.745-24-24-24zm-24 228c-11.046 0-20-8.954-20-20s8.954-20 20-20 20 8.954 20 20-8.954 20-20 20zM485.94 92.67L528 140.74V320h-19.17c.56-14.96-4.38-28.98-14-39.71l-80.92-98.91c2.93-3.2 2.76-8.16-.38-11.16-2.82-2.7-7.08-2.92-10.14-.76-.42.3-60.35 62.93-60.35 62.93l-.2.21c-23.904 26.905-66.127 26.204-89.15-1.42-15.48-18.58-15.29-45.39.45-63.76l66.57-77.67C334.304 73.88 354.534 64 376.7 64h46.05a83.98 83.98 0 0 1 63.19 28.67zm-3.37 197.92c15.46 16.78 12.59 43.83-2.37 57.75-17.711 16.462-42.433 13.004-45.93 9.2 1.653 15.658-21.389 47.249-56.42 44.68-6.325 21.185-32.298 38.909-59.18 29.61-10.22 10.21-25.82 14.97-39.81 14.97-28.69 0-54.92-11.99-72.58-30.8L112 320V135.52l61.36-50.57A71.52 71.52 0 0 1 223.93 64h37.42c16.73 0 32.68 6.84 44.21 18.85l-63.57 74.16c-20.84 24.31-21.09 59.81-.59 84.42 29.375 35.247 83.007 35.853 113.31 1.92L402.82 193l79.75 97.59z"></path>
  </symbol>
  <symbol id="home" viewBox="0 0 576 512">
    <title id="home-title">home</title>
    <path d="M488 312.7V456c0 13.3-10.7 24-24 24H348c-6.6 0-12-5.4-12-12V356c0-6.6-5.4-12-12-12h-72c-6.6 0-12 5.4-12 12v112c0 6.6-5.4 12-12 12H112c-13.3 0-24-10.7-24-24V312.7c0-3.6 1.6-7 4.4-9.3l188-154.8c4.4-3.6 10.8-3.6 15.3 0l188 154.8c2.7 2.3 4.3 5.7 4.3 9.3zm83.6-60.9L488 182.9V44.4c0-6.6-5.4-12-12-12h-56c-6.6 0-12 5.4-12 12V117l-89.5-73.7c-17.7-14.6-43.3-14.6-61 0L4.4 251.8c-5.1 4.2-5.8 11.8-1.6 16.9l25.5 31c4.2 5.1 11.8 5.8 16.9 1.6l235.2-193.7c4.4-3.6 10.8-3.6 15.3 0l235.2 193.7c5.1 4.2 12.7 3.5 16.9-1.6l25.5-31c4.2-5.2 3.4-12.7-1.7-16.9z"></path>
  </symbol>
  <symbol id="info-circle" viewBox="0 0 512 512">
    <title id="info-circle-title">Info Circle</title>
    <path d="M256 8C119.043 8 8 119.083 8 256c0 136.997 111.043 248 248 248s248-111.003 248-248C504 119.083 392.957 8 256 8zm0 110c23.196 0 42 18.804 42 42s-18.804 42-42 42-42-18.804-42-42 18.804-42 42-42zm56 254c0 6.627-5.373 12-12 12h-88c-6.627 0-12-5.373-12-12v-24c0-6.627 5.373-12 12-12h12v-64h-12c-6.627 0-12-5.373-12-12v-24c0-6.627 5.373-12 12-12h64c6.627 0 12 5.373 12 12v100h12c6.627 0 12 5.373 12 12v24z"></path>
  </symbol>
  <symbol id="pencil-alt" viewBox="0 0 512 512">
    <title id="pencil-alt-title">Alternate Pencil</title>
    <path d="M497.9 142.1l-46.1 46.1c-4.7 4.7-12.3 4.7-17 0l-111-111c-4.7-4.7-4.7-12.3 0-17l46.1-46.1c18.7-18.7 49.1-18.7 67.9 0l60.1 60.1c18.8 18.7 18.8 49.1 0 67.9zM284.2 99.8L21.6 362.4.4 483.9c-2.9 16.4 11.4 30.6 27.8 27.8l121.5-21.3 262.6-262.6c4.7-4.7 4.7-12.3 0-17l-111-111c-4.8-4.7-12.4-4.7-17.1 0zM124.1 339.9c-5.5-5.5-5.5-14.3 0-19.8l154-154c5.5-5.5 14.3-5.5 19.8 0s5.5 14.3 0 19.8l-154 154c-5.5 5.5-14.3 5.5-19.8 0zM88 424h48v36.3l-64.5 11.3-31.1-31.1L51.7 376H88v48z"></path>
  </symbol>
  <symbol id="plus" viewBox="0 0 448 512">
    <title id="plus-title">plus</title>
    <path d="M448 294.2v-76.4c0-13.3-10.7-24-24-24H286.2V56c0-13.3-10.7-24-24-24h-76.4c-13.3 0-24 10.7-24 24v137.8H24c-13.3 0-24 10.7-24 24v76.4c0 13.3 10.7 24 24 24h137.8V456c0 13.3 10.7 24 24 24h76.4c13.3 0 24-10.7 24-24V318.2H424c13.3 0 24-10.7 24-24z"></path>
  </symbol>
  <symbol id="qrcode" viewBox="0 0 448 512">
    <title id="qrcode-title">qrcode</title>
    <path d="M0 224h192V32H0v192zM64 96h64v64H64V96zm192-64v192h192V32H256zm128 128h-64V96h64v64zM0 480h192V288H0v192zm64-128h64v64H64v-64zm352-64h32v128h-96v-32h-32v96h-64V288h96v32h64v-32zm0 160h32v32h-32v-32zm-64 0h32v32h-32v-32z"></path>
  </symbol>
  <symbol id="spinner" viewBox="0 0 512 512">
    <title id="spinner-title">Spinner</title>
    <path d="M304 48c0 26.51-21.49 48-48 48s-48-21.49-48-48 21.49-48 48-48 48 21.49 48 48zm-48 368c-26.51 0-48 21.49-48 48s21.49 48 48 48 48-21.49 48-48-21.49-48-48-48zm208-208c-26.51 0-48 21.49-48 48s21.49 48 48 48 48-21.49 48-48-21.49-48-48-48zM96 256c0-26.51-21.49-48-48-48S0 229.49 0 256s21.49 48 48 48 48-21.49 48-48zm12.922 99.078c-26.51 0-48 21.49-48 48s21.49 48 48 48 48-21.49 48-48c0-26.509-21.491-48-48-48zm294.156 0c-26.51 0-48 21.49-48 48s21.49 48 48 48 48-21.49 48-48c0-26.509-21.49-48-48-48zM108.922 60.922c-26.51 0-48 21.49-48 48s21.49 48 48 48 48-21.49 48-48-21.491-48-48-48z"></path>
  </symbol>
  </svg>