<?xml version="1.0" encoding="UTF-8" standalone="no"?>
<!-- Generator: Adobe Illustrator 21.0.2, SVG Export Plug-In . SVG Version: 6.00 Build 0)  -->

<svg
   xmlns:dc="http://purl.org/dc/elements/1.1/"
   xmlns:cc="http://creativecommons.org/ns#"
   xmlns:rdf="http://www.w3.org/1999/02/22-rdf-syntax-ns#"
   xmlns:svg="http://www.w3.org/2000/svg"
   xmlns="http://www.w3.org/2000/svg"
   xmlns:sodipodi="http://sodipodi.sourceforge.net/DTD/sodipodi-0.dtd"
   xmlns:inkscape="http://www.inkscape.org/namespaces/inkscape"
   version="1.1"
   id="Logo"
   x="0px"
   y="0px"
   viewBox="0 0 250 250"
   xml:space="preserve"
   inkscape:version="0.92.2 5c3e80d, 2017-08-06"
   sodipodi:docname="logo.svg"
   width="250"
   height="250"
   inkscape:export-filename="/Users/igabriele/Workspace/Electra-Desktop/src/assets/images/icons/logo.icns.png"
   inkscape:export-xdpi="393.22"
   inkscape:export-ydpi="393.22"><metadata
     id="metadata47"><rdf:RDF><cc:Work
         rdf:about=""><dc:format>image/svg+xml</dc:format><dc:type
           rdf:resource="http://purl.org/dc/dcmitype/StillImage" /><dc:title></dc:title></cc:Work></rdf:RDF></metadata><defs
     id="defs45" /><sodipodi:namedview
     pagecolor="#ffffff"
     bordercolor="#666666"
     borderopacity="1"
     objecttolerance="10"
     gridtolerance="10"
     guidetolerance="10"
     inkscape:pageopacity="0"
     inkscape:pageshadow="2"
     inkscape:window-width="1440"
     inkscape:window-height="855"
     id="namedview43"
     showgrid="false"
     inkscape:zoom="2.0576807"
     inkscape:cx="149.52568"
     inkscape:cy="146.24952"
     inkscape:window-x="0"
     inkscape:window-y="1"
     inkscape:window-maximized="1"
     inkscape:current-layer="g5" /><style
     type="text/css"
     id="style3">
	.st0{fill:#BE00FF;}
	.st1{fill:#FFFFFF;}
</style><g
     id="g5"
     transform="translate(0,-50)"><circle
       class="st0"
       cx="125"
       cy="175"
       r="125"
       id="circle23"
       style="fill:#be00ff" /><g
       id="g25"
       transform="translate(-31.49055,25.000004)"><circle
         class="st1"
         cx="156.5"
         cy="252.89999"
         r="4.5"
         id="circle27"
         style="fill:#ffffff" /><circle
         transform="matrix(0.5,-0.866,0.866,0.5,-51.657,107.5964)"
         class="st1"
         cx="67.300003"
         cy="98.5"
         id="ellipse29"
         r="4.5"
         style="fill:#ffffff" /><circle
         transform="matrix(0.8661,-0.4999,0.4999,0.8661,-91.7009,60.6501)"
         class="st1"
         cx="67.300003"
         cy="201.5"
         id="ellipse31"
         r="4.5"
         style="fill:#ffffff" /><circle
         transform="matrix(0.866,-0.5001,0.5001,0.866,-16.3512,136.0519)"
         class="st1"
         cx="245.7"
         cy="98.5"
         id="ellipse33"
         r="4.5"
         style="fill:#ffffff" /><circle
         class="st1"
         cx="156.5"
         cy="47.099998"
         r="4.5"
         id="circle35"
         style="fill:#ffffff" /><path
         class="st1"
         d="m 237.7,196.9 c 2.3,-4 7.2,-5.6 11.4,-3.9 v -86 c -4.2,1.7 -9,0.1 -11.4,-3.9 -2.3,-4 -1.3,-9 2.3,-11.8 l -74.5,-43 c -0.6,4.5 -4.4,7.9 -9.1,7.9 -4.6,0 -8.4,-3.4 -9.1,-7.9 L 73,91.3 c 3.5,2.8 4.6,7.8 2.3,11.8 -2.3,4 -7.2,5.6 -11.4,3.9 v 86 c 4.2,-1.7 9,-0.1 11.4,3.9 2.3,4 1.3,9 -2.3,11.8 l 74.5,43 c 0.6,-4.5 4.4,-7.9 9.1,-7.9 4.6,0 8.5,3.4 9.1,7.9 l 74.5,-43 c -3.7,-2.8 -4.8,-7.8 -2.5,-11.8 z m -63.6,-13.1 c 8.3,-4.8 14.2,-12.3 17,-20.7 4.4,-12.9 24.3,-5.7 16.9,11.1 -0.1,0.2 -0.1,0.3 -0.2,0.5 l 24.5,14.1 c 2.1,1.2 2.8,3.9 1.6,6 -1.2,2.1 -3.9,2.8 -6,1.6 l -24.3,-14 c -4.8,7.4 -11.2,13.9 -19.4,18.6 -7.3,4.2 -14.9,6.7 -22.9,7.5 V 235 c 0,2.4 -2.1,4.4 -4.5,4.4 -2.4,0 -4.5,-2 -4.5,-4.4 v -26.4 c -17,-0.9 -34.5,-9.7 -45.1,-25.1 l -22.1,12.8 c -2.1,1.2 -4.8,0.5 -6,-1.6 -1.2,-2.1 -0.5,-4.8 1.6,-6 L 102.8,176 c -1.5,-3 -2.6,-6.1 -3.6,-9.2 L 97.1,155 c -0.8,-10.6 1.4,-21.3 6.2,-30.7 l -22.6,-13 c -2.1,-1.2 -2.8,-3.9 -1.6,-6 1.2,-2.1 3.9,-2.8 6,-1.6 l 22.7,13.1 c 4.7,-6.5 10.8,-12.2 18.2,-16.4 8.3,-4.8 17.3,-7.3 26.3,-7.7 V 65 c 0,-2.4 2.1,-4.4 4.5,-4.4 2.4,0 4.5,2 4.5,4.4 v 27.9 c 16,1.7 32,10.5 41.9,25.2 L 228,103.7 c 2.1,-1.2 4.7,-0.5 5.9,1.6 1.2,2.1 0.5,4.8 -1.6,6 l -33.8,19.5 c -0.1,0.1 -0.3,0.2 -0.4,0.2 l -8,4.6 -16.7,9.7 -49,28.3 c 11.4,15.3 32.7,19.9 49.7,10.2 z"
         id="path37"
         inkscape:connector-curvature="0"
         style="fill:#ffffff" /><circle
         transform="matrix(0.5,-0.866,0.866,0.5,-51.6619,313.468)"
         class="st1"
         cx="245.7"
         cy="201.5"
         id="ellipse39"
         r="4.5"
         style="fill:#ffffff" /><path
         class="st1"
         d="m 135.9,117.5 c -16.4,9.5 -18.5,21.4 -18.1,38.5 l 61,-35.2 c -11.9,-9.6 -28.9,-11.3 -42.9,-3.3 z"
         id="path41"
         inkscape:connector-curvature="0"
         style="fill:#ffffff" /></g></g></svg>